# xmcd CD database file
#
# Track frame offsets:
#	150
#	20599
#	39269
#	60972
#	76147
#	95542
#	123387
#	142355
#	161813
#	181760
#
# Disc length: 2683 seconds
#
# Revision: 0
# Processed by: cddbd v1.5.1PL0 Copyright (c) Steve Scherf et al.
# Submitted via: CDex 1.51
#
DISCID=7c0a790a
DTITLE=Hawk - Beyond Forever
DYEAR=2004
DGENRE=Jazz
TTITLE0=Out Of This World
TTITLE1=Chill Out
TTITLE2=Diamond Night
TTITLE3=False Gold
TTITLE4=Happy We're 2
TTITLE5=While Heaven Cries
TTITLE6=Answer With Your Heart
TTITLE7=Beyond Forever
TTITLE8=Burn The Night
TTITLE9=Faith Come Home
EXTD=YEAR: 2004
EXTT0=
EXTT1=
EXTT2=
EXTT3=
EXTT4=
EXTT5=
EXTT6=
EXTT7=
EXTT8=
EXTT9=
PLAYORDER=
